<?xml version="1.0" encoding="UTF-8"?>
<svg width="20px" height="20px" viewBox="0 0 20 20" version="1.1" xmlns="http://www.w3.org/2000/svg" xmlns:xlink="http://www.w3.org/1999/xlink">
    <!-- Generator: Sketch 52.3 (67297) - http://www.bohemiancoding.com/sketch -->
    <title>1*/Configuracoes</title>
    <desc>Created with Sketch.</desc>
    <g id="1*/Configuracoes" stroke="none" stroke-width="1" fill="none" fill-rule="evenodd">
        <path d="M19.6992593,8.71037037 L18.5407407,8.48740741 C17.8585185,8.3562963 17.2996296,7.89222222 17.0462963,7.24518519 C16.7922222,6.59888889 16.8859259,5.87851852 17.297037,5.31814815 L18.0244444,4.32592593 C18.1325926,4.17888889 18.1166667,3.97444444 17.9874074,3.84518519 L16.4162963,2.27407407 C16.2907407,2.14851852 16.0937037,2.12962963 15.9466667,2.22925926 L14.9696296,2.89074074 C14.6325926,3.11888889 14.2444444,3.23962963 13.8462963,3.23962963 C12.8414815,3.23962963 12.0018519,2.52074074 11.8488889,1.52962963 L11.6618519,0.313703704 C11.6348148,0.133333333 11.4792593,0 11.2962963,0 L9.07407407,0 C8.89666667,0 8.7437037,0.126296296 8.71037037,0.300740741 L8.42259259,1.79740741 C8.24037037,2.74518519 7.40555556,3.43296296 6.43851852,3.43296296 C6.04037037,3.43296296 5.65148148,3.31259259 5.31518519,3.08444444 L4.05333333,2.22962963 C3.9062963,2.13037037 3.70925926,2.14888889 3.5837037,2.27444444 L2.01222222,3.84555556 C1.88296296,3.97481481 1.86740741,4.17888889 1.97518519,4.32666667 L2.70259259,5.31888889 C3.11333333,5.87888889 3.20703704,6.59925926 2.95333333,7.24592593 C2.69925926,7.89222222 2.14074074,8.35666667 1.45851852,8.48777778 L0.3,8.71074074 C0.125925926,8.7437037 0,8.89666667 0,9.07407407 L0,11.2962963 C0,11.4788889 0.133333333,11.6344444 0.314074074,11.6622222 L1.53,11.8492593 C2.2162963,11.9548148 2.79222222,12.3977778 3.06962963,13.0344444 C3.34740741,13.6714815 3.28074074,14.3948148 2.89111111,14.97 L2.22962963,15.947037 C2.13,16.0937037 2.14888889,16.2911111 2.27444444,16.4166667 L3.84555556,17.9877778 C3.97481481,18.1166667 4.17851852,18.1333333 4.3262963,18.0248148 L5.31851852,17.2974074 C5.66814815,17.0411111 6.07777778,16.9051852 6.50259259,16.9051852 C7.47037037,16.9051852 8.30518519,17.592963 8.48740741,18.5407407 L8.71037037,19.6996296 C8.7437037,19.8737037 8.89666667,20 9.07407407,20 L11.2962963,20 C11.4792593,20 11.6344444,19.8666667 11.6622222,19.6859259 L11.7937037,18.8307407 C11.9662963,17.7077778 12.9296296,17.1203704 13.7922222,17.1203704 C14.2166667,17.1203704 14.6255556,17.2559259 14.9759259,17.512963 L15.6737037,18.0244444 C15.8214815,18.132963 16.0255556,18.1162963 16.1544444,17.9874074 L17.7255556,16.4162963 C17.8511111,16.2907407 17.87,16.0937037 17.7703704,15.9466667 L17.1088889,14.9696296 C16.7192593,14.3944444 16.6525926,13.6711111 16.9303704,13.0340741 C17.2081481,12.3974074 17.7837037,11.9544444 18.47,11.8488889 L19.6859259,11.6618519 C19.8666667,11.6344444 20,11.4788889 20,11.2962963 L20,9.07407407 C20,8.89666667 19.8740741,8.7437037 19.6992593,8.71037037 Z M13.3333333,10.1851852 C13.3333333,11.9211111 11.9211111,13.3333333 10.1851852,13.3333333 C8.44925926,13.3333333 7.03703704,11.9211111 7.03703704,10.1851852 C7.03703704,8.44925926 8.44925926,7.03703704 10.1851852,7.03703704 C11.9211111,7.03703704 13.3333333,8.44925926 13.3333333,10.1851852 Z" id="Shape" fill="#6800C1" fill-rule="nonzero"></path>
    </g>
</svg>