<?xml version="1.0" encoding="UTF-8"?>
<svg width="24px" height="24px" viewBox="0 0 24 24" version="1.1" xmlns="http://www.w3.org/2000/svg" xmlns:xlink="http://www.w3.org/1999/xlink">
    <!-- Generator: Sketch 52.3 (67297) - http://www.bohemiancoding.com/sketch -->
    <title>1*/Evento cinza</title>
    <desc>Created with Sketch.</desc>
    <g id="1*/Evento-cinza" stroke="none" stroke-width="1" fill="none" fill-rule="evenodd">
        <g id="event" fill="#8D8D8D" fill-rule="nonzero">
            <path d="M21.1105438,2.60117972 C21.0615484,2.59918894 21.0124977,2.59885714 20.963447,2.60023963 L19.1143963,2.60023963 L19.1143963,1.01120737 C19.1144516,0.37559447 18.5077051,0 17.8720922,0 L16.1675392,0 C15.5319263,0 15.0696774,0.37559447 15.0696774,1.01120737 L15.0696774,2.60018433 L8.1357788,2.60018433 L8.1357788,1.01120737 C8.1357788,0.37559447 7.67352995,0 7.03791705,0 L5.33330876,0 C4.69775115,0 4.09100461,0.37559447 4.09100461,1.01120737 L4.09100461,2.60018433 L2.24200922,2.60018433 C1.06169585,2.56728111 0.0781935484,3.49747465 0.0452903226,4.67773272 C0.0439078341,4.72672811 0.0442396313,4.7758341 0.0462304147,4.82482949 L0.0462304147,21.5239078 C0.0462304147,22.7951336 0.970728111,23.9796498 2.24195392,23.9796498 L20.9635023,23.9796498 C22.2347281,23.9796498 23.1592258,22.7951336 23.1592258,21.5239078 L23.1592258,4.82482949 C23.2075576,3.64506912 22.2903041,2.64951152 21.1105438,2.60117972 Z M16.1675392,1.15564977 L17.9588018,1.15564977 L17.9588018,4.33365899 L16.1675392,4.33365899 L16.1675392,1.15564977 Z M5.33336406,1.15564977 L6.98018433,1.15564977 L6.98018433,4.33365899 L5.33336406,4.33365899 L5.33336406,1.15564977 Z M22.003576,21.5239078 C22.003576,22.1595207 21.5991152,22.824 20.9635023,22.824 L2.24200922,22.824 C1.60639631,22.824 1.20193548,22.1595207 1.20193548,21.5239078 L1.20193548,9.24519816 L22.003576,9.24519816 L22.003576,21.5239078 Z M22.003576,4.82482949 L22.003576,8.08954839 L1.20188018,8.08954839 L1.20188018,4.82482949 C1.15294009,4.284553 1.55126267,3.80687558 2.09153917,3.75793548 C2.14152995,3.75340092 2.19185253,3.75273733 2.24195392,3.7558894 L4.09100461,3.7558894 L4.09100461,4.3915023 C4.09100461,5.02711521 4.69769585,5.48936406 5.33330876,5.48936406 L7.03791705,5.48936406 C7.62807373,5.50556682 8.11957604,5.0402212 8.1357788,4.45006452 C8.1363318,4.43054378 8.1363318,4.41102304 8.1357788,4.3915023 L8.1357788,3.7558341 L15.0696774,3.7558341 L15.0696774,4.391447 C15.0534747,4.98160369 15.5188203,5.47310599 16.108977,5.48930876 C16.1284977,5.48986175 16.1480184,5.48986175 16.1675392,5.48930876 L17.8721475,5.48930876 C18.5077604,5.48930876 19.1144516,5.02705991 19.1144516,4.391447 L19.1144516,3.7558341 L20.9635023,3.7558341 C21.5049401,3.72171429 21.9715023,4.13297696 22.0056221,4.67441475 C22.0087742,4.72451613 22.0081106,4.77483871 22.003576,4.82482949 Z" id="Shape"></path>
            <path d="M8.39579724,17.1324608 L7.87576037,20.0215853 C7.85518894,20.1455115 7.87553917,20.2728111 7.93376959,20.384129 C8.08169585,20.6668756 8.43085714,20.7762028 8.71360369,20.6282765 L11.313788,19.2703963 L13.9139724,20.6282765 L14.1739908,20.6860645 C14.2993548,20.6882765 14.4217327,20.6474654 14.5206636,20.5704885 C14.6933641,20.4443502 14.7822304,20.2332166 14.7518157,20.02153 L14.2317788,17.1324055 L16.3408479,15.1100461 C16.4917604,14.9469677 16.5465069,14.7169217 16.4852903,14.5033548 C16.4074839,14.3059355 16.2321843,14.1635392 16.0230415,14.1277604 L13.1339171,13.6943779 L11.8338249,11.0652719 C11.7771429,10.9482581 11.6826912,10.8537512 11.5656774,10.7971244 C11.2784516,10.6580461 10.9328848,10.7781014 10.7937512,11.0652719 L9.49365899,13.6943779 L6.60453456,14.1277604 C6.39539171,14.1634839 6.22009217,14.3059355 6.14228571,14.5033548 C6.08106912,14.7169217 6.13587097,14.9469677 6.28672811,15.1100461 L8.39579724,17.1324608 Z M9.98482949,14.7922949 C10.1662673,14.7651429 10.32,14.6443687 10.3892903,14.4744885 L11.313788,12.6254378 L12.2382857,14.4744885 C12.3076313,14.6443687 12.4613088,14.7651429 12.6427465,14.7922949 L14.6940276,15.0811797 L13.2205714,16.4968479 C13.083318,16.6327189 13.0189493,16.8258249 13.0472074,17.0168848 L13.3938802,19.0681659 L11.5737512,18.0858802 L11.3137327,18.0280922 L11.0537143,18.0858802 L9.23358525,19.0681659 L9.58025806,17.0168848 C9.60857143,16.8258249 9.54414747,16.6327189 9.40689401,16.4968479 L7.93343779,15.0811797 L9.98482949,14.7922949 Z" id="Shape"></path>
        </g>
    </g>
</svg>