<?xml version="1.0" encoding="UTF-8"?>
<svg width="31px" height="24px" viewBox="0 0 31 24" version="1.1" xmlns="http://www.w3.org/2000/svg" xmlns:xlink="http://www.w3.org/1999/xlink">
    <!-- Generator: Sketch 52.3 (67297) - http://www.bohemiancoding.com/sketch -->
    <title>1*/Feed cinza</title>
    <desc>Created with Sketch.</desc>
    <g id="1*/Feed-cinza" stroke="none" stroke-width="1" fill="none" fill-rule="evenodd">
        <g id="picture" transform="translate(0.000000, 0.000000)" fill="#8D8D8D">
            <path d="M29.7391304,0 L0.52173913,0 C0.23373913,0 0,0.233217391 0,0.52173913 L0,23.4782609 C0,23.7667826 0.23373913,24 0.52173913,24 L29.7391304,24 C30.0271304,24 30.2608696,23.7667826 30.2608696,23.4782609 L30.2608696,0.52173913 C30.2608696,0.233217391 30.0271304,0 29.7391304,0 Z M29.2173913,22.9565217 L1.04347826,22.9565217 L1.04347826,1.04347826 L29.2173913,1.04347826 L29.2173913,22.9565217 Z" id="Shape" fill-rule="nonzero"></path>
            <path d="M8.34782609,11.5502609 C9.95008696,11.5502609 11.2533913,10.2469565 11.2533913,8.64521739 C11.2533913,7.04243478 9.95008696,5.73913043 8.34782609,5.73913043 C6.74556522,5.73913043 5.44226087,7.04243478 5.44226087,8.64469565 C5.44226087,10.2469565 6.74556522,11.5502609 8.34782609,11.5502609 Z M8.34782609,6.7826087 C9.3746087,6.7826087 10.209913,7.61843478 10.209913,8.64469565 C10.209913,9.67095652 9.3746087,10.5067826 8.34782609,10.5067826 C7.32104348,10.5067826 6.48573913,9.67147826 6.48573913,8.64521739 C6.48573913,7.61895652 7.32104348,6.7826087 8.34782609,6.7826087 Z" id="Shape" fill-rule="nonzero"></path>
            <path d="M3.65217391,20.8695652 C3.77426087,20.8695652 3.8973913,20.8267826 3.99652174,20.7396522 L12.5076522,13.2464348 L17.8826087,18.6208696 C18.0866087,18.8248696 18.4163478,18.8248696 18.6203478,18.6208696 C18.8243478,18.4168696 18.8243478,18.0871304 18.6203478,17.8831304 L16.1123478,15.3751304 L20.9024348,10.1295652 L26.7777391,15.5154783 C26.990087,15.710087 27.3203478,15.6954783 27.5149565,15.4831304 C27.7095652,15.2707826 27.6954783,14.9405217 27.4826087,14.745913 L21.2217391,9.00678261 C21.1194783,8.9133913 20.9833043,8.86695652 20.846087,8.87008696 C20.7078261,8.87634783 20.5773913,8.9373913 20.484,9.03965217 L15.374087,14.6363478 L12.8994783,12.1617391 C12.7043478,11.9671304 12.3923478,11.9572174 12.1857391,12.1387826 L3.30730435,19.956 C3.09078261,20.1464348 3.06991304,20.4761739 3.26034783,20.6926957 C3.36365217,20.810087 3.50765217,20.8695652 3.65217391,20.8695652 Z" id="Path"></path>
        </g>
    </g>
</svg>