<?xml version="1.0" encoding="UTF-8"?>
<svg width="20px" height="24px" viewBox="0 0 20 24" version="1.1" xmlns="http://www.w3.org/2000/svg" xmlns:xlink="http://www.w3.org/1999/xlink">
    <!-- Generator: Sketch 52.3 (67297) - http://www.bohemiancoding.com/sketch -->
    <title>1*/Perfil cinza</title>
    <desc>Created with Sketch.</desc>
    <g id="1*/Perfil-cinza" stroke="none" stroke-width="1" fill="none" fill-rule="evenodd">
        <g id="noun_profile_1594250" transform="translate(-0.000000, 0.000000)" fill="#8D8D8D" fill-rule="nonzero">
            <path d="M19.4285714,22.5714286 C19.4285714,23.1991647 18.9190916,23.7142857 18.2898363,23.7142857 L1.13873509,23.7142857 C0.512548229,23.7142857 0,23.2008271 0,22.5714286 C0,17.2063767 4.34923389,12.8571429 9.71428571,12.8571429 C15.0793375,12.8571429 19.4285714,17.2063767 19.4285714,22.5714286 Z M9.71428571,14 C4.98041646,14 1.14285714,17.8375593 1.14285714,22.5714286 C1.14285714,22.5700981 18.2898363,22.5714286 18.2898363,22.5714286 C18.2857143,17.8375593 14.448155,14 9.71428571,14 Z M9.71428571,11.7142857 C6.55837286,11.7142857 4,9.15591286 4,6 C4,2.84408714 6.55837286,0.285714286 9.71428571,0.285714286 C12.8701986,0.285714286 15.4285714,2.84408714 15.4285714,6 C15.4285714,9.15591286 12.8701986,11.7142857 9.71428571,11.7142857 Z M9.71428571,10.5714286 C12.239016,10.5714286 14.2857143,8.52473029 14.2857143,6 C14.2857143,3.47526971 12.239016,1.42857143 9.71428571,1.42857143 C7.18955543,1.42857143 5.14285714,3.47526971 5.14285714,6 C5.14285714,8.52473029 7.18955543,10.5714286 9.71428571,10.5714286 Z" id="Shape"></path>
        </g>
    </g>
</svg>